<?xml version="1.0" encoding="utf-8"?>
<!-- Generator: Adobe Illustrator 18.0.0, SVG Export Plug-In . SVG Version: 6.00 Build 0)  -->
<!DOCTYPE svg PUBLIC "-//W3C//DTD SVG 1.1 Tiny//EN" "http://www.w3.org/Graphics/SVG/1.1/DTD/svg11-tiny.dtd">
<svg version="1.1" baseProfile="tiny" id="Layer_1" xmlns="http://www.w3.org/2000/svg" xmlns:xlink="http://www.w3.org/1999/xlink"
	 x="0px" y="0px" viewBox="0 0 576 576" xml:space="preserve">
<g>
	<path fill="#F6B330" d="M187.3,253.9c-18.7,0-33.9,15.2-33.9,33.9c0,16.1,11.3,29.6,26.4,33c-0.1-0.9-0.1-1.9-0.1-2.8
		c0-17.8,9.8-34.1,25.5-42.6l3,5.7c-13.6,7.3-22.1,21.5-22.1,36.9c0,1.2,0.1,2.4,0.2,3.7c0.3,0,0.7,0,1,0c0.5,0,0.9,0,1.3,0
		c-0.1-1.2-0.2-2.4-0.2-3.7c0-6.6,1.6-12.8,4.7-18.4c2.9-5.3,7.2-9.9,12.4-13.3l3.1,4.7c-4.4,2.9-8.1,6.8-10.6,11.3
		c-2.6,4.7-4,10-4,15.6c0,1,0,2,0.1,3c15.4-3.2,26.9-16.8,26.9-33.1C221.1,269.1,206,253.9,187.3,253.9z M178.4,307.9
		c-3.2-4.7-7.6-8.4-12.9-10.9l2.3-5.1c4.9,2.2,9.1,5.3,12.5,9.2C179.5,303.3,178.9,305.6,178.4,307.9z M181.4,298.2
		c0,0.1-0.1,0.2-0.1,0.3c-4.6-5.1-10.3-9.1-16.8-11.4l2.2-6c6.7,2.5,12.7,6.3,17.6,11.3C183.3,294.2,182.3,296.2,181.4,298.2z
		 M185.2,290.3c-1.5-1.8-3.1-3.4-5.6-4.8v-18.4h5.6V290.3z M193.9,280.1c0,0-1.4,1.4-2.1,2.1c-1.5,1.5-3.1,3.1-4.1,4.8v-27.5h6.2
		V280.1z"/>
	<g>
		<g>
			<g>
				<path fill="#8E9093" d="M268.8,315.2h-2.3v-5.5c0-0.6-0.1-1.1-0.2-1.3c-0.1-0.2-0.4-0.3-0.7-0.3c-0.3,0-0.5,0.1-0.7,0.3
					c-0.2,0.2-0.3,0.4-0.4,0.6v6.3H262v-9.1h1.9l0.2,0.9c0.2-0.3,0.5-0.5,0.8-0.8c0.4-0.3,0.9-0.4,1.5-0.4c0.4,0,0.7,0.1,1,0.2
					c0.3,0.1,0.5,0.3,0.8,0.6c0.2,0.3,0.3,0.6,0.4,1c0.1,0.4,0.1,0.9,0.1,1.5V315.2z"/>
			</g>
		</g>
		<g>
			<g>
				<path fill="#8E9093" d="M290.5,315.4c-0.5,0-1-0.1-1.5-0.2c-0.5-0.1-0.9-0.3-1.2-0.5l-0.1,0l0.7-1.9l0.1,0.1
					c0.2,0.1,0.5,0.3,0.8,0.4c0.3,0.1,0.6,0.2,1,0.2c0.2,0,0.5-0.1,0.6-0.2c0.1-0.1,0.2-0.3,0.2-0.5c0-0.2-0.1-0.4-0.2-0.6
					c-0.2-0.2-0.3-0.3-0.6-0.5c-0.2-0.1-0.5-0.3-0.8-0.5c-0.3-0.2-0.6-0.4-0.8-0.6c-0.3-0.2-0.5-0.5-0.6-0.9
					c-0.2-0.3-0.3-0.8-0.3-1.3c0-0.9,0.2-1.5,0.7-2c0.5-0.5,1.2-0.7,2.1-0.7c0.5,0,1,0.1,1.5,0.2c0.5,0.1,0.9,0.3,1.1,0.4l0.1,0
					l-0.6,1.8l-0.1,0c-0.2-0.1-0.5-0.2-0.8-0.3c-0.3-0.1-0.6-0.1-0.9-0.1c-0.7,0-0.8,0.4-0.8,0.6c0,0.2,0.1,0.4,0.2,0.5
					c0.2,0.1,0.4,0.3,0.6,0.4c0.2,0.1,0.5,0.3,0.8,0.4c0.3,0.2,0.6,0.4,0.8,0.6c0.3,0.2,0.5,0.5,0.6,0.9c0.2,0.3,0.3,0.8,0.3,1.3
					c0,0.8-0.3,1.5-0.8,2.1C292.3,315.2,291.5,315.4,290.5,315.4z"/>
			</g>
		</g>
		<g>
			<g>
				<path fill="#8E9093" d="M304,315.4c-0.7,0-1.2-0.2-1.6-0.6c-0.4-0.4-0.5-1.1-0.5-2v-4.5h-1v-2.1h1v-1.6l2.3-0.7v2.4h1.7v2.1
					h-1.7v3.8c0,0.5,0,0.8,0.1,1c0.1,0.2,0.2,0.3,0.4,0.3c0.2,0,0.3,0,0.5,0c0.1,0,0.3-0.1,0.4-0.2l0.1-0.1l0.3,1.9l-0.1,0
					c-0.3,0.1-0.6,0.2-0.9,0.3C304.8,315.4,304.4,315.4,304,315.4z"/>
			</g>
		</g>
		<g>
			<g>
				<path fill="#8E9093" d="M316.2,315.2h-2.3v-9.1h1.8l0.2,0.9c0.2-0.3,0.4-0.6,0.6-0.8c0.3-0.2,0.7-0.4,1.1-0.4
					c0.3,0,0.6,0.1,0.9,0.2l0.1,0l-0.3,2.3l-0.1,0c-0.6-0.2-1.1-0.2-1.5,0.1c-0.2,0.2-0.3,0.4-0.4,0.7V315.2z"/>
			</g>
		</g>
		<g>
			<g>
				<path fill="#8E9093" d="M340.7,315.4c-0.6,0-1.2-0.1-1.6-0.3c-0.5-0.2-0.8-0.5-1.1-1c-0.3-0.4-0.5-0.9-0.7-1.5
					c-0.1-0.6-0.2-1.3-0.2-2c0-1.6,0.3-2.8,1-3.6c0.7-0.8,1.6-1.2,2.7-1.2c0.4,0,0.8,0.1,1.1,0.2c0.4,0.1,0.7,0.3,1,0.6
					c0.3,0.3,0.5,0.6,0.7,1.1c0.2,0.5,0.3,1,0.3,1.7c0,0.3,0,0.5,0,0.8c0,0.3-0.1,0.6-0.1,1l0,0.1h-4.3c0,0.7,0.2,1.2,0.4,1.5
					c0.3,0.4,0.7,0.5,1.3,0.5c0.4,0,0.7-0.1,1-0.2c0.3-0.1,0.5-0.2,0.7-0.4l0.1-0.1l0.8,1.7l-0.1,0.1c-0.3,0.3-0.7,0.5-1.2,0.7
					C341.8,315.3,341.2,315.4,340.7,315.4z M339.4,309.7h2.2c0-0.6,0-1.1-0.2-1.4c-0.2-0.3-0.4-0.5-0.7-0.5c-0.4,0-0.7,0.2-0.9,0.5
					C339.6,308.7,339.4,309.1,339.4,309.7z"/>
			</g>
		</g>
		<g>
			<g>
				<path fill="#8E9093" d="M354.3,315.4c-0.5,0-1-0.1-1.5-0.2c-0.5-0.1-0.9-0.3-1.2-0.5l-0.1,0l0.7-1.9l0.1,0.1
					c0.2,0.1,0.5,0.3,0.8,0.4c0.3,0.1,0.6,0.2,1,0.2c0.3,0,0.5-0.1,0.6-0.2c0.1-0.1,0.2-0.3,0.2-0.5c0-0.2-0.1-0.4-0.2-0.6
					c-0.2-0.2-0.4-0.3-0.6-0.5c-0.2-0.1-0.5-0.3-0.8-0.5c-0.3-0.2-0.6-0.4-0.8-0.6c-0.3-0.2-0.5-0.5-0.6-0.9
					c-0.2-0.3-0.3-0.8-0.3-1.3c0-0.9,0.2-1.5,0.7-2c0.5-0.5,1.2-0.7,2.1-0.7c0.5,0,1,0.1,1.5,0.2c0.5,0.1,0.9,0.3,1.1,0.4l0.1,0
					l-0.6,1.8l-0.1,0c-0.2-0.1-0.5-0.2-0.8-0.3c-0.3-0.1-0.6-0.1-0.9-0.1c-0.7,0-0.8,0.4-0.8,0.6c0,0.2,0.1,0.3,0.2,0.5
					c0.2,0.1,0.4,0.3,0.6,0.4c0.3,0.1,0.5,0.3,0.8,0.4c0.3,0.2,0.6,0.4,0.8,0.6c0.3,0.2,0.5,0.5,0.6,0.9c0.2,0.3,0.2,0.8,0.2,1.3
					c0,0.8-0.3,1.5-0.8,2.1C356.1,315.2,355.3,315.4,354.3,315.4z"/>
			</g>
		</g>
		<g>
			<g>
				<path fill="#8E9093" d="M242.5,315.2H240v-7.3l-2.3,5.1h-0.9l-2.4-4.9v7.2H232v-12.7h2.3l3,6.2l2.8-6.2h2.3V315.2z"/>
			</g>
		</g>
		<g>
			<g>
				<path fill="#8E9093" d="M253.4,315.2h-2.3v-9.1h2.3V315.2z"/>
			</g>
			<circle fill="#8E9093" cx="252.3" cy="303.6" r="1.4"/>
		</g>
		<g>
			<g>
				<path fill="#8E9093" d="M279.7,315.2h-2.3v-9.1h2.3V315.2z"/>
			</g>
			<circle fill="#8E9093" cx="278.5" cy="303.6" r="1.4"/>
		</g>
		<g>
			<g>
				<path fill="#8E9093" d="M328.7,315.2h-2.3v-9.1h2.3V315.2z"/>
			</g>
			<circle fill="#8E9093" cx="327.6" cy="303.6" r="1.4"/>
		</g>
	</g>
	<g>
		<path fill="#8E9093" d="M357.2,275.5h1.5c0.4,0,0.8,0,1.3,0c0.5,0,0.9-0.1,1.2-0.1c0.9-0.3,1.8-0.9,2.4-1.7c0.7-0.8,1-1.7,1-2.9
			c0-0.8-0.1-1.4-0.3-1.9c-0.2-0.5-0.5-0.9-0.9-1.2c-0.4-0.3-0.9-0.5-1.4-0.6c-0.5-0.1-1.1-0.2-1.7-0.2c-0.7,0-1.3,0-1.9,0.1
			c-0.5,0-0.8,0.1-1.1,0.1V275.5z M383.3,278.6h7.2c0-1.7-0.2-2.9-0.8-3.7c-0.6-0.8-1.4-1.2-2.4-1.2c-1.2,0-2.1,0.4-2.8,1.2
			C383.9,275.7,383.5,277,383.3,278.6 M357.2,287.2c0.1,0,0.3,0.1,0.4,0.1c0.3,0,0.5,0,0.8,0.1c0.3,0,0.6,0,0.9,0.1
			c0.3,0,0.6,0,0.9,0c0.7,0,1.4-0.1,1.9-0.3c0.6-0.2,1.1-0.5,1.6-0.9c0.4-0.4,0.8-0.9,1.1-1.4c0.3-0.6,0.4-1.2,0.4-2
			c0-1-0.2-1.7-0.5-2.3c-0.3-0.6-0.7-1-1.2-1.4c-0.5-0.3-1.1-0.5-1.8-0.7c-0.7-0.1-1.4-0.2-2.1-0.2h-2.5V287.2z M288.1,287.3
			c0.1,0,0.2,0,0.4,0c0.3,0,0.6,0,0.9,0l0.9,0c0.3,0,0.5,0,0.6,0c1.4,0,2.6-0.3,3.6-0.8c1-0.6,1.7-1.3,2.3-2.3c0.6-1,1-2.1,1.2-3.3
			c0.2-1.3,0.4-2.7,0.4-4.1c0-1.3-0.1-2.5-0.3-3.7c-0.2-1.2-0.6-2.3-1.1-3.2c-0.5-0.9-1.3-1.7-2.2-2.3c-0.9-0.6-2.1-0.9-3.6-0.9
			h-0.9c-0.3,0-0.6,0-0.9,0c-0.3,0-0.6,0-0.8,0.1c-0.2,0-0.3,0-0.5,0V287.3z M311.3,281.6c-0.6,0-1.2,0-1.8,0.1
			c-0.6,0.1-1.1,0.3-1.6,0.5c-0.4,0.2-0.8,0.5-1.1,0.9c-0.3,0.4-0.4,0.9-0.4,1.5c0,0.9,0.2,1.6,0.7,2.1c0.5,0.5,1.1,0.7,1.9,0.7
			c1.1,0,1.9-0.2,2.5-0.7c0.6-0.5,1-0.9,1.2-1.5v-3.6c-0.2,0-0.4,0-0.6,0C311.8,281.6,311.5,281.6,311.3,281.6 M403,281.6
			c-0.6,0-1.2,0-1.8,0.1c-0.6,0.1-1.1,0.3-1.6,0.5c-0.4,0.2-0.8,0.5-1.1,0.9c-0.3,0.4-0.4,0.9-0.4,1.5c0,0.9,0.2,1.6,0.7,2.1
			c0.5,0.5,1.1,0.7,1.9,0.7c1.1,0,1.9-0.2,2.5-0.7c0.6-0.5,1-0.9,1.2-1.5v-3.6c-0.2,0-0.4,0-0.6,0
			C403.5,281.6,403.2,281.6,403,281.6 M239.9,266.7c-1.9,0-3.4,0.8-4.4,2.5c-1,1.7-1.5,4.4-1.5,7.9c0,1.4,0.1,2.8,0.3,4
			c0.2,1.3,0.6,2.4,1,3.3c0.5,0.9,1.1,1.7,1.8,2.3c0.7,0.6,1.6,0.8,2.7,0.8c2,0,3.4-0.8,4.4-2.5c1-1.7,1.5-4.4,1.5-7.9
			c0-1.4-0.1-2.7-0.3-4c-0.2-1.3-0.6-2.4-1-3.3c-0.5-0.9-1.1-1.7-1.8-2.3C241.8,266.9,240.9,266.7,239.9,266.7 M417.5,273.9
			c-1.4,0-2.4,0.5-3.2,1.7c-0.8,1.1-1.2,2.9-1.2,5.3c0,1,0.1,2,0.2,2.8c0.1,0.8,0.4,1.6,0.7,2.2c0.3,0.6,0.7,1.1,1.1,1.4
			c0.5,0.3,1,0.5,1.7,0.5c1.8,0,3-1,3.5-2.9v-10.1c-0.3-0.2-0.7-0.4-1.1-0.5C418.8,273.9,418.2,273.9,417.5,273.9 M271,290h-3.3
			v-18.5h2.4l0.5,1.8c0.4-0.6,0.8-1.1,1.4-1.5c1.1-0.7,2.5-0.8,4.4-0.3l0.2,0l-0.6,3l-0.2-0.1c-1.7-0.5-2.9-0.4-3.8,0.3
			c-0.5,0.4-0.8,1-1,1.7L271,290z M322.7,290h-3.3v-18.5h3.3V290z M374.4,290h-3.3v-18.5h2.4l0.5,1.8c0.4-0.6,0.8-1.1,1.4-1.5
			c1.1-0.7,2.5-0.8,4.4-0.3l0.2,0l-0.6,3l-0.2-0.1c-1.7-0.5-2.9-0.4-3.8,0.3c-0.5,0.4-0.8,1-1,1.7L374.4,290z M308.1,290.2
			c-1.5,0-2.7-0.5-3.7-1.4c-0.9-0.9-1.4-2.2-1.4-3.9c0-1.1,0.2-2,0.6-2.7c0.4-0.7,1-1.3,1.7-1.8c0.7-0.4,1.6-0.8,2.6-1
			c1-0.2,2.1-0.3,3.3-0.3h0.8c0.2,0,0.4,0,0.7,0c0.1-0.7,0.1-1.3,0.1-1.8c0-1.3-0.2-2.3-0.6-2.8c-0.4-0.5-1.2-0.8-2.3-0.8
			c-0.7,0-1.5,0.1-2.4,0.3c-0.9,0.2-1.6,0.5-2.1,0.8l-0.2,0.1l-1.1-2.4l0.2-0.1c0.8-0.4,1.8-0.8,2.9-1c1.1-0.2,2.3-0.4,3.6-0.4
			c1.1,0,2.1,0.2,2.8,0.5c0.7,0.3,1.3,0.8,1.7,1.3c0.4,0.5,0.7,1.2,0.8,1.9c0.1,0.7,0.2,1.4,0.2,2.1c0,1.5,0,2.9-0.1,4.2
			c-0.1,1.3-0.1,2.7-0.1,3.9c0,0.9,0,1.8,0.1,2.5c0.1,0.8,0.2,1.5,0.4,2.2l0.1,0.2h-2.6L313,288c-0.4,0.6-1,1.1-1.7,1.5
			C310.5,290,309.5,290.2,308.1,290.2 M399.8,290.2c-1.5,0-2.7-0.5-3.7-1.4c-0.9-0.9-1.4-2.2-1.4-3.9c0-1.1,0.2-2,0.6-2.7
			c0.4-0.7,1-1.3,1.7-1.8c0.7-0.4,1.6-0.8,2.6-1c1-0.2,2.1-0.3,3.3-0.3h0.8c0.2,0,0.4,0,0.7,0c0.1-0.7,0.1-1.3,0.1-1.8
			c0-1.3-0.2-2.3-0.6-2.8c-0.4-0.5-1.2-0.8-2.3-0.8c-0.7,0-1.5,0.1-2.4,0.3c-0.9,0.2-1.6,0.5-2.1,0.8l-0.2,0.1l-1.1-2.4l0.2-0.1
			c0.8-0.4,1.8-0.8,2.9-1c1.1-0.2,2.3-0.4,3.6-0.4c1.1,0,2.1,0.2,2.8,0.5c0.7,0.3,1.3,0.8,1.7,1.3c0.4,0.5,0.7,1.2,0.8,1.9
			c0.1,0.7,0.2,1.4,0.2,2.1c0,1.4,0,2.9-0.1,4.2c-0.1,1.4-0.1,2.7-0.1,3.9c0,0.9,0,1.8,0.1,2.5c0.1,0.8,0.2,1.5,0.4,2.2l0.1,0.2
			h-2.7l-0.7-2.1c-0.4,0.6-1,1.1-1.7,1.5C402.3,290,401.2,290.2,399.8,290.2 M360,290.3h-1.3c-0.5,0-1,0-1.6-0.1
			c-0.5,0-1.1-0.1-1.7-0.1c-0.6-0.1-1.1-0.2-1.5-0.3l-0.1,0v-25.3l0.2,0c0.8-0.1,1.8-0.3,2.8-0.4c1.1-0.1,2.3-0.1,3.5-0.1
			c0.9,0,1.8,0.1,2.8,0.2c0.9,0.2,1.8,0.5,2.5,0.9c0.7,0.5,1.4,1.1,1.8,1.9c0.5,0.8,0.7,1.9,0.7,3.2c0,0.6-0.1,1.3-0.2,1.9
			c-0.2,0.6-0.4,1.3-0.8,1.8c-0.4,0.6-0.8,1.1-1.3,1.5c-0.4,0.4-1,0.7-1.6,0.9c0.5,0.1,1,0.3,1.5,0.5c0.6,0.3,1.2,0.7,1.6,1.2
			c0.5,0.5,0.8,1.1,1.1,1.9c0.3,0.7,0.4,1.6,0.4,2.6c0,1.3-0.2,2.5-0.7,3.5c-0.5,1-1.1,1.8-1.9,2.4c-0.8,0.6-1.7,1.1-2.8,1.4
			C362.3,290.1,361.2,290.3,360,290.3 M290.7,290.3c-0.3,0-0.8,0-1.3,0c-0.5,0-1.1,0-1.7-0.1c-0.6,0-1.1-0.1-1.6-0.1
			c-0.5,0-0.9-0.1-1.2-0.1l-0.2,0v-25.7l0.2,0c0.4-0.1,0.9-0.1,1.4-0.2c0.5,0,1-0.1,1.6-0.1l1.6,0c0.5,0,1,0,1.5,0
			c2,0,3.7,0.3,5.1,0.9c1.4,0.6,2.5,1.5,3.4,2.7c0.9,1.1,1.5,2.5,1.9,4.1c0.4,1.6,0.6,3.4,0.6,5.3c0,1.7-0.2,3.4-0.5,5
			c-0.4,1.6-1,3-1.9,4.3c-0.9,1.2-2,2.2-3.5,3C294.6,289.9,292.8,290.3,290.7,290.3 M239.9,290.4c-1.7,0-3.1-0.3-4.3-0.9
			c-1.2-0.6-2.2-1.5-3-2.7c-0.8-1.2-1.3-2.6-1.7-4.2c-0.3-1.6-0.5-3.5-0.5-5.5c0-4.3,0.8-7.6,2.3-9.9c1.6-2.3,4-3.4,7.1-3.4
			c1.7,0,3.2,0.3,4.4,0.9c1.2,0.6,2.2,1.5,2.9,2.7c0.7,1.2,1.3,2.6,1.7,4.2c0.3,1.6,0.5,3.5,0.5,5.5c0,4.3-0.8,7.7-2.3,9.9
			C245.4,289.3,243,290.4,239.9,290.4 M256.9,290.4c-0.9,0-1.6-0.1-2.3-0.3c-0.7-0.2-1.3-0.6-1.7-1.1c-0.5-0.5-0.8-1.3-1.1-2.2
			c-0.2-0.9-0.3-2-0.3-3.4v-11.9h3.3v11.3c0,1.8,0.2,3.1,0.6,3.8c0.4,0.7,1.1,1.1,2.1,1.1c0.5,0,1-0.1,1.4-0.3
			c0.4-0.2,0.8-0.5,1.1-0.8c0.3-0.3,0.6-0.7,0.9-1.1c0.3-0.4,0.5-0.8,0.6-1.3v-12.7h3.3v13.2c0,0.9,0,1.8,0.1,2.7
			c0.1,0.9,0.2,1.7,0.3,2.4l0,0.2h-2.4l-0.7-2.4c-0.5,0.7-1.1,1.4-1.9,1.9C259.3,290.1,258.2,290.4,256.9,290.4 M387.4,290.4
			c-1.3,0-2.4-0.2-3.4-0.7c-0.9-0.5-1.7-1.1-2.4-2c-0.6-0.8-1.1-1.9-1.4-3.1c-0.3-1.2-0.4-2.5-0.4-4c0-3.1,0.6-5.5,1.9-7.2
			c1.3-1.7,3.1-2.5,5.5-2.5c0.8,0,1.5,0.1,2.3,0.3c0.8,0.2,1.5,0.5,2.1,1.1c0.6,0.5,1.1,1.3,1.5,2.2c0.4,0.9,0.6,2.2,0.6,3.7
			c0,0.4,0,0.9-0.1,1.3c0,0.5-0.1,1-0.1,1.5l0,0.2h-10.2c0,0.9,0.1,1.8,0.3,2.6c0.2,0.8,0.5,1.5,0.9,2.1c0.4,0.6,0.9,1,1.5,1.3
			c0.6,0.3,1.4,0.5,2.3,0.5c0.7,0,1.4-0.1,2.1-0.4c0.7-0.2,1.2-0.5,1.6-0.8l0.2-0.2l1.2,2.3l-0.1,0.1c-0.7,0.5-1.5,1-2.5,1.3
			C389.5,290.3,388.5,290.4,387.4,290.4 M416.4,290.4c-2.2,0-3.9-0.8-5-2.4c-1.1-1.5-1.6-4-1.6-7.3c0-3.1,0.7-5.5,2-7.2
			c1.3-1.6,3.2-2.5,5.5-2.5c0.8,0,1.4,0,1.9,0.1c0.4,0.1,0.8,0.2,1.3,0.3v-7.4h3.3v19.3c0,1.2,0,2.4,0,3.3c0,1,0.1,2,0.3,2.9l0,0.2
			h-2.3l-0.6-2.1c-0.4,0.7-1,1.2-1.7,1.7C418.5,290.1,417.5,290.4,416.4,290.4 M330.1,290.4l-0.1-0.1c-0.1,0-1.7-1-2.7-2.5
			c-0.8-1.2-0.8-3.6-0.8-5.4v-18.3h3.3v18.5c0,0.9,0,2.4,0.3,3.1c0.5,1.4,1.7,2,1.7,2l0.2,0.1L330.1,290.4z M333.6,298.1l-1.3-2.8
			l0.2-0.1c0.9-0.5,1.8-1.3,2.7-2.3c0.8-1,1.4-2.2,1.7-3c0.2-0.5,0.2-0.6,0.2-0.8c0-0.2,0-0.4-0.1-0.6l-5-17.1h3.7l2.6,10.6
			c0.2,1,0.4,1.8,0.6,2.7c0,0.1,0.1,0.3,0.1,0.4c0.2-0.9,0.4-1.9,0.7-3l2.3-10.7h3.5l-3.2,12c-1.2,4.4-2.5,9-4.9,11.8
			c-1.6,1.9-3.2,2.7-3.6,2.8L333.6,298.1z"/>
		<path fill="#8E9093" d="M321.1,268.6c-1.4,0-2.6-1.1-2.6-2.6c0-1.4,1.2-2.6,2.6-2.6c1.4,0,2.6,1.1,2.6,2.6
			C323.7,267.5,322.5,268.6,321.1,268.6"/>
	</g>
</g>
<g>
	<path fill="#8E9093" d="M363.9,302.6c0-0.6-0.4-0.9-1.2-0.9c-0.4,0-0.9,0-1.1,0.1l-0.1,0v3h0.7v-1.3l0.4,0.1l0.8,1.2h0.8l-0.9-1.4
		C363.7,303.3,363.9,303,363.9,302.6z M363.1,302.7c0,0.2-0.1,0.4-0.6,0.4h-0.3v-0.6c0.1,0,0.2,0,0.3,0
		C362.7,302.4,363.1,302.4,363.1,302.7z"/>
	<path fill="#8E9093" d="M362.7,300.3c-1.7,0-3,1.4-3,3c0,1.7,1.4,3,3,3c1.7,0,3-1.4,3-3C365.7,301.6,364.4,300.3,362.7,300.3z
		 M364.9,303.3c0,1.2-1,2.2-2.2,2.2c-1.2,0-2.2-1-2.2-2.2c0-1.2,1-2.2,2.2-2.2C363.9,301.1,364.9,302.1,364.9,303.3z"/>
</g>
</svg>
